<?xml version="1.0" encoding="utf-8"?>
<!-- Generator: Adobe Illustrator 26.0.0, SVG Export Plug-In . SVG Version: 6.00 Build 0)  -->
<svg version="1.1" id="logo_dalkomm" xmlns="http://www.w3.org/2000/svg" xmlns:xlink="http://www.w3.org/1999/xlink" x="0px"
	 y="0px" viewBox="0 0 117 22.1" style="enable-background:new 0 0 117 22.1;" xml:space="preserve">
<style type="text/css">
	.st0{fill:none;}
	.st1{fill:#161615;}
</style>
<path class="st0" d="M0,6.2h117v15.9H0V6.2z"/>
<g transform="translate(213.884 169.136)">
	<path class="st1" d="M-175.1-149.8c-0.2-0.6-0.4-0.7-0.8-0.6c-0.1,0-0.3,0.1-0.4,0.1c-0.2,0-0.3-0.2-0.3-0.4v-11.2
		c0-0.7-0.4-1.1-1-1l-1.8,0.3c-0.7,0.1-1,0.4-1,1v11.2c0,2.3,1.2,3.4,3.4,3.4c0.7,0,1.4-0.1,2-0.5c0.4-0.2,0.6-0.4,0.4-1
		L-175.1-149.8z"/>
	<circle class="st1" cx="-171.5" cy="-149.3" r="2.3"/>
	<path class="st1" d="M-147.6-158.6c-3.2,0.2-5.6,2.9-5.5,6.1s2.9,5.6,6.1,5.5c3.1-0.2,5.5-2.7,5.5-5.8c0-3.2-2.6-5.8-5.8-5.8
		C-147.4-158.6-147.5-158.6-147.6-158.6z M-147.6-150.2c-1.4,0.1-2.6-1-2.7-2.4c-0.1-1.4,1-2.6,2.4-2.7c1.4-0.1,2.6,1,2.7,2.4
		c0,0.1,0,0.1,0,0.2C-145.1-151.4-146.1-150.2-147.6-150.2C-147.5-150.3-147.6-150.3-147.6-150.2z"/>
	<path class="st1" d="M-119-150.1c-0.2-0.6-0.4-0.7-0.8-0.6c-0.1,0-0.3,0.1-0.4,0.1c-0.2,0-0.3-0.2-0.3-0.4v-2.7l0,0l0,0
		c0.2-2.5-1.6-4.6-4.1-4.8c-0.2,0-0.4,0-0.5,0c-1.4,0-2.7,0.5-3.6,1.5c-0.9-1-2.1-1.5-3.4-1.5c-1.4,0-2.7,0.7-3.5,1.8
		c-0.4-1.2-1.6-1.9-2.8-1.8c-0.6,0-1.1,0.1-1.7,0.4c-0.5,0.2-0.6,0.5-0.4,1.1l0.3,1.5c0.1,0.6,0.4,0.6,0.6,0.6
		c0.2,0,0.5-0.2,0.7-0.2s0.2,0.1,0.2,0.3v6.6c-0.1,0.5,0.3,1,0.8,1c0.1,0,0.1,0,0.2,0h1.8c0.5,0,0.9-0.3,1-0.8c0-0.1,0-0.1,0-0.2
		v-5.2c-0.1-0.9,0.6-1.7,1.5-1.8c0.1,0,0.1,0,0.2,0c0.9,0,1.7,0.7,1.7,1.6c0,0.1,0,0.2,0,0.3v5.2c-0.1,0.5,0.3,1,0.8,1
		c0.1,0,0.1,0,0.2,0h1.8c0.5,0,0.9-0.3,1-0.8c0-0.1,0-0.1,0-0.2v-5.2c-0.1-0.9,0.6-1.8,1.5-1.8c0.1,0,0.1,0,0.2,0
		c0.9,0,1.7,0.7,1.7,1.6c0,0.1,0,0.2,0,0.3v2.8c0,2.3,1.2,3.4,3.4,3.4c0.7,0,1.4-0.1,2-0.5c0.4-0.2,0.6-0.4,0.4-1L-119-150.1z"/>
	<path class="st1" d="M-97.2-148.8l-0.4-1.3c-0.2-0.6-0.4-0.7-0.8-0.6c-0.1,0-0.3,0.1-0.4,0.1c-0.2,0-0.3-0.2-0.3-0.4v-2.7l0,0l0,0
		c0.2-2.5-1.6-4.6-4.1-4.8c-0.2,0-0.4,0-0.5,0c-1.4,0-2.7,0.5-3.6,1.5c-0.9-1-2.1-1.5-3.4-1.5c-1.4,0-2.7,0.7-3.5,1.8
		c-0.4-1.2-1.6-1.9-2.8-1.8c-0.6,0-1.1,0.1-1.7,0.4c-0.5,0.2-0.6,0.5-0.4,1.1l0.3,1.5c0.1,0.6,0.4,0.6,0.6,0.6s0.5-0.2,0.7-0.2
		s0.2,0.1,0.2,0.3v6.6c-0.1,0.5,0.3,1,0.8,1c0.1,0,0.1,0,0.2,0h1.8c0.5,0,0.9-0.3,1-0.8c0-0.1,0-0.1,0-0.2v-5.2
		c-0.1-0.9,0.6-1.7,1.5-1.8c0.1,0,0.1,0,0.2,0c0.9,0,1.7,0.7,1.7,1.6c0,0.1,0,0.2,0,0.3v5.2c-0.1,0.5,0.3,1,0.8,1c0.1,0,0.1,0,0.2,0
		h1.8c0.5,0,0.9-0.3,1-0.8c0-0.1,0-0.1,0-0.2v-5.2c-0.1-0.9,0.6-1.8,1.5-1.8c0.1,0,0.1,0,0.2,0c0.9,0,1.7,0.7,1.7,1.6
		c0,0.1,0,0.2,0,0.3v2.8c0,2.3,1.2,3.4,3.4,3.4c0.7,0,1.4-0.1,2-0.5C-97.2-148-97-148.1-97.2-148.8L-97.2-148.8z"/>
	<path class="st1" d="M-182.6-150.1c-0.2-0.6-0.4-0.7-0.8-0.6c-0.1,0-0.3,0.1-0.4,0.1c-0.2,0-0.3-0.2-0.3-0.4v-6.5
		c0-0.5-0.3-1-0.8-1c-0.1,0-0.1,0-0.2,0h-1.1c-0.5,0-0.9,0.3-1,0.8c0,0.1,0,0.1,0,0.2v0.2c-1-0.9-2.2-1.3-3.5-1.3
		c-3.2,0.1-5.7,2.8-5.6,6c0.1,3,2.5,5.4,5.6,5.6c1.3,0,2.5-0.5,3.4-1.4c0.7,0.8,1.7,1.2,2.7,1.1c0.7,0,1.4-0.1,2-0.5
		c0.4-0.2,0.6-0.4,0.4-1L-182.6-150.1z M-190.1-150.3c-1.4-0.1-2.5-1.3-2.4-2.7c0.1-1.3,1.1-2.3,2.4-2.4c1.3,0,2.4,1,2.4,2.3
		c0,0.1,0,0.1,0,0.2c0.1,1.3-0.9,2.4-2.2,2.5C-190-150.3-190-150.3-190.1-150.3L-190.1-150.3z"/>
	<path class="st1" d="M-205.2-161.6h-6.2c-0.6,0-1.1,0.1-1.7,0.4c-0.5,0.2-0.6,0.5-0.4,1.1l0.3,1.5c0.1,0.6,0.4,0.6,0.6,0.6
		c0.2,0,0.5-0.2,0.7-0.2s0.2,0.1,0.2,0.3v0.9l0,0v8.7c-0.1,0.5,0.3,1,0.8,1c0.1,0,0.1,0,0.2,0h5.4c4.7,0,7.5-2.9,7.5-7.2
		C-197.6-158.7-200.5-161.6-205.2-161.6L-205.2-161.6z M-205.3-150.4h-2.4v-8h2.4c2.2,0,3.8,1.5,3.8,4S-203.1-150.4-205.3-150.4
		L-205.3-150.4z"/>
	<path class="st1" d="M-154.5-149.9c-0.2-0.6-0.4-0.7-0.9-0.6c-0.2,0.1-0.4,0.1-0.6,0c-0.2,0-0.5-0.3-1.2-1.2l-2.4-3.4l4.7-5.5
		c0.5-0.6,0.2-1-0.5-1h-2.5c-0.7,0-1,0.4-1.5,1l-3.8,4.5v-4.5c0.1-0.5-0.3-1-0.8-1c-0.1,0-0.1,0-0.2,0h-2.6c-0.6,0-1.1,0.1-1.7,0.4
		c-0.5,0.2-0.6,0.5-0.4,1.1l0.3,1.5c0.1,0.6,0.4,0.6,0.6,0.6c0.2,0,0.5-0.2,0.7-0.2s0.2,0.1,0.2,0.3v9.6c-0.1,0.5,0.3,1,0.8,1
		c0.1,0,0.1,0,0.2,0h1.8c0.5,0.1,1-0.3,1-0.8c0-0.1,0-0.1,0-0.2v-3.5l0.8-0.9l1.6,2.3c0.6,0.9,1.3,1.8,2,2.6
		c0.7,0.6,1.5,0.9,2.4,0.8c0.6,0,1.1-0.1,1.6-0.4c0.4-0.2,0.6-0.6,0.5-1c0,0,0,0,0-0.1L-154.5-149.9z"/>
</g>
</svg>
