<?xml version="1.0" encoding="utf-8"?>
<!-- Generator: Adobe Illustrator 26.0.0, SVG Export Plug-In . SVG Version: 6.00 Build 0)  -->
<svg version="1.1" id="logo_dalkomm" xmlns="http://www.w3.org/2000/svg" xmlns:xlink="http://www.w3.org/1999/xlink" x="0px"
	 y="0px" viewBox="0 0 117 30" style="enable-background:new 0 0 117 30;" xml:space="preserve">
<style type="text/css">
	.st0{fill:none;}
	.st1{fill:#FFFFFF;}
</style>
<path class="st0" d="M0,0h117v30H0V0z"/>
<g transform="translate(-213.883 -169.136)">
	<g transform="translate(213.884 169.136)">
		<path class="st1" d="M38.5,13.2c-0.2-0.6-0.4-0.7-0.8-0.6c-0.1,0-0.3,0.1-0.4,0.1c-0.2,0-0.3-0.2-0.3-0.4V1c0-0.7-0.4-1.1-1-1
			l-1.8,0.3c-0.7,0.1-1,0.4-1,1v11.2c0,2.3,1.2,3.4,3.4,3.4c0.7,0,1.4-0.1,2-0.5c0.4-0.2,0.6-0.4,0.4-1L38.5,13.2z"/>
		<circle class="st1" cx="42.1" cy="13.7" r="2.3"/>
		<path class="st1" d="M66,4.5c-3.2,0.2-5.6,2.9-5.5,6.1s2.9,5.6,6.1,5.5c3.1-0.2,5.5-2.7,5.5-5.8c0-3.2-2.6-5.8-5.8-5.8
			C66.2,4.4,66.1,4.4,66,4.5z M66,12.8c-1.4,0.1-2.6-1-2.7-2.4c-0.1-1.4,1-2.6,2.4-2.7c1.4-0.1,2.6,1,2.7,2.4c0,0.1,0,0.1,0,0.2
			c0.1,1.3-0.9,2.5-2.3,2.5C66.1,12.8,66,12.8,66,12.8z"/>
		<path class="st1" d="M94.5,12.9c-0.2-0.6-0.4-0.7-0.8-0.6c-0.1,0-0.3,0.1-0.4,0.1c-0.2,0-0.3-0.2-0.3-0.4V9.3h0v0
			c0.2-2.5-1.6-4.6-4.1-4.8c-0.2,0-0.4,0-0.5,0c-1.4,0-2.7,0.5-3.6,1.5c-0.9-1-2.1-1.5-3.4-1.5c-1.4,0-2.7,0.7-3.5,1.8
			c-0.4-1.2-1.6-1.9-2.8-1.8c-0.6,0-1.1,0.1-1.7,0.4c-0.5,0.2-0.6,0.5-0.4,1.1l0.3,1.5C73.4,7.9,73.7,8,73.9,8
			c0.2,0,0.5-0.2,0.7-0.2c0.2,0,0.2,0.1,0.2,0.3v6.6c-0.1,0.5,0.3,1,0.8,1c0.1,0,0.1,0,0.2,0h1.8c0.5,0,0.9-0.3,1-0.8
			c0-0.1,0-0.1,0-0.2V9.5c-0.1-0.9,0.6-1.7,1.5-1.8c0.1,0,0.1,0,0.2,0c0.9,0,1.7,0.7,1.7,1.6c0,0.1,0,0.2,0,0.3v5.2
			c-0.1,0.5,0.3,1,0.8,1c0.1,0,0.1,0,0.2,0h1.8c0.5,0,0.9-0.3,1-0.8c0-0.1,0-0.1,0-0.2V9.5c-0.1-0.9,0.6-1.8,1.5-1.8
			c0.1,0,0.1,0,0.2,0c0.9,0,1.7,0.7,1.7,1.6c0,0.1,0,0.2,0,0.3v2.8c0,2.3,1.2,3.4,3.4,3.4c0.7,0,1.4-0.1,2-0.5
			c0.4-0.2,0.6-0.4,0.4-1L94.5,12.9z"/>
		<path class="st1" d="M116.4,14.3l-0.4-1.3c-0.2-0.6-0.4-0.7-0.8-0.6c-0.1,0-0.3,0.1-0.4,0.1c-0.2,0-0.3-0.2-0.3-0.4V9.3h0v0
			c0.2-2.5-1.6-4.6-4.1-4.8c-0.2,0-0.4,0-0.5,0c-1.4,0-2.7,0.5-3.6,1.5c-0.9-1-2.1-1.5-3.4-1.5c-1.4,0-2.7,0.7-3.5,1.8
			c-0.4-1.2-1.6-1.9-2.8-1.8c-0.6,0-1.1,0.1-1.7,0.4c-0.5,0.2-0.6,0.5-0.4,1.1l0.3,1.5C94.9,7.9,95.1,8,95.3,8
			c0.2,0,0.5-0.2,0.7-0.2c0.2,0,0.2,0.1,0.2,0.3v6.6c-0.1,0.5,0.3,1,0.8,1c0.1,0,0.1,0,0.2,0h1.8c0.5,0,0.9-0.3,1-0.8
			c0-0.1,0-0.1,0-0.2V9.5c-0.1-0.9,0.6-1.7,1.5-1.8c0.1,0,0.1,0,0.2,0c0.9,0,1.7,0.7,1.7,1.6c0,0.1,0,0.2,0,0.3v5.2
			c-0.1,0.5,0.3,1,0.8,1c0.1,0,0.1,0,0.2,0h1.8c0.5,0,0.9-0.3,1-0.8c0-0.1,0-0.1,0-0.2V9.5c-0.1-0.9,0.6-1.8,1.5-1.8
			c0.1,0,0.1,0,0.2,0c0.9,0,1.7,0.7,1.7,1.6c0,0.1,0,0.2,0,0.3v2.8c0,2.3,1.2,3.4,3.4,3.4c0.7,0,1.4-0.1,2-0.5
			C116.4,15.1,116.6,14.9,116.4,14.3L116.4,14.3z"/>
		<path class="st1" d="M31,12.9c-0.2-0.6-0.4-0.7-0.8-0.6c-0.1,0-0.3,0.1-0.4,0.1c-0.2,0-0.3-0.2-0.3-0.4V5.5c0-0.5-0.3-1-0.8-1
			c-0.1,0-0.1,0-0.2,0h-1.1c-0.5,0-0.9,0.3-1,0.8c0,0.1,0,0.1,0,0.2v0.2c-1-0.9-2.2-1.3-3.5-1.3c-3.2,0.1-5.7,2.8-5.6,6
			c0.1,3,2.5,5.4,5.6,5.6c1.3,0,2.5-0.5,3.4-1.4c0.7,0.8,1.7,1.2,2.7,1.1c0.7,0,1.4-0.1,2-0.5c0.4-0.2,0.6-0.4,0.4-1L31,12.9z
			 M23.5,12.8c-1.4-0.1-2.5-1.3-2.4-2.7c0.1-1.3,1.1-2.3,2.4-2.4c1.3,0,2.4,1,2.4,2.3c0,0.1,0,0.1,0,0.2c0.1,1.3-0.9,2.4-2.2,2.5
			C23.6,12.8,23.5,12.8,23.5,12.8L23.5,12.8z"/>
		<path class="st1" d="M8.4,1.4H2.1C1.6,1.4,1,1.6,0.5,1.8C0,2.1-0.1,2.3,0.1,2.9l0.3,1.5C0.5,4.9,0.8,5,1,5c0.2,0,0.5-0.2,0.7-0.2
			c0.2,0,0.2,0.1,0.2,0.3V6h0v8.7c-0.1,0.5,0.3,1,0.8,1c0.1,0,0.1,0,0.2,0h5.4c4.7,0,7.5-2.9,7.5-7.2C15.9,4.3,13,1.4,8.4,1.4
			L8.4,1.4z M8.2,12.6H5.8v-8h2.4c2.2,0,3.8,1.5,3.8,4S10.4,12.6,8.2,12.6L8.2,12.6z"/>
		<path class="st1" d="M59.1,13.1c-0.2-0.6-0.4-0.7-0.9-0.6c-0.2,0.1-0.4,0.1-0.6,0c-0.2,0-0.5-0.3-1.2-1.2L54.1,8l4.7-5.5
			c0.5-0.6,0.2-1-0.5-1h-2.5c-0.7,0-1,0.4-1.5,1L50.5,7V2.5c0.1-0.5-0.3-1-0.8-1c-0.1,0-0.1,0-0.2,0h-2.6c-0.6,0-1.1,0.1-1.7,0.4
			c-0.5,0.2-0.6,0.5-0.4,1.1L45,4.4C45.2,4.9,45.4,5,45.6,5c0.2,0,0.5-0.2,0.7-0.2c0.2,0,0.2,0.1,0.2,0.3v9.6c-0.1,0.5,0.3,1,0.8,1
			c0.1,0,0.1,0,0.2,0h1.8c0.5,0.1,1-0.3,1-0.8c0-0.1,0-0.1,0-0.2v-3.5l0.8-0.9l1.6,2.3c0.6,0.9,1.3,1.8,2,2.6
			c0.7,0.6,1.5,0.9,2.4,0.8c0.6,0,1.1-0.1,1.6-0.4c0.4-0.2,0.6-0.6,0.5-1c0,0,0,0,0-0.1L59.1,13.1z"/>
	</g>
	<g transform="translate(232.886 190.917)">
		<path class="st1" d="M0,5.3V2c0-1.3,0.6-2,1.7-2c0.9,0,1.6,0.6,1.6,1.5c0,0,0,0.1,0,0.1c0,0.1,0,0.2-0.1,0.2H2.7
			c-0.1,0-0.2,0-0.2-0.1c0-0.4-0.4-0.8-0.8-0.8C1.2,0.8,0.9,1.2,0.9,2v3.3c0,0.8,0.3,1.2,0.8,1.2c0.4,0,0.8-0.4,0.8-0.8
			c0-0.1,0.1-0.1,0.2-0.1h0.5c0.1,0,0.1,0.1,0.1,0.2c0,0.9-0.7,1.5-1.5,1.6c0,0-0.1,0-0.1,0C0.6,7.3,0,6.6,0,5.3z"/>
		<path class="st1" d="M4.8,5.3V2c0-1.3,0.6-2,1.7-2s1.7,0.7,1.7,2v3.3c0,1.3-0.6,2-1.7,2S4.8,6.6,4.8,5.3z M7.4,5.3V2
			c0-0.8-0.3-1.2-0.8-1.2S5.7,1.2,5.7,2v3.3c0,0.8,0.3,1.2,0.8,1.2S7.4,6.1,7.4,5.3z"/>
		<path class="st1" d="M12.4,0.3v0.4c0,0.1-0.1,0.2-0.2,0.2h-1.4c-0.1,0-0.2,0-0.2,0.2V3c0,0.1,0,0.2,0.2,0.2h0.9
			c0.1,0,0.2,0.1,0.2,0.2v0.4c0,0.1-0.1,0.2-0.2,0.2h-0.9c-0.1,0-0.2,0-0.2,0.2V7c0,0.1-0.1,0.2-0.2,0.2H10C9.8,7.2,9.8,7.2,9.8,7
			V0.3c0-0.1,0.1-0.2,0.2-0.2h2.2C12.4,0.1,12.4,0.1,12.4,0.3L12.4,0.3z"/>
		<path class="st1" d="M16.4,0.3v0.4c0,0.1-0.1,0.2-0.2,0.2h-1.4c-0.1,0-0.2,0-0.2,0.2V3c0,0.1,0,0.2,0.2,0.2h0.9
			c0.1,0,0.2,0.1,0.2,0.2v0.4c0,0.1-0.1,0.2-0.2,0.2h-0.9c-0.1,0-0.2,0-0.2,0.2V7c0,0.1-0.1,0.2-0.2,0.2H14c-0.1,0-0.2-0.1-0.2-0.2
			V0.3c0-0.1,0.1-0.2,0.2-0.2h2.2C16.4,0.1,16.4,0.1,16.4,0.3L16.4,0.3z"/>
		<path class="st1" d="M18.6,3c0,0.1,0,0.2,0.2,0.2h1.4c0.1,0,0.2,0.1,0.2,0.2v0.4c0,0.1-0.1,0.2-0.2,0.2h-1.4c-0.1,0-0.2,0-0.2,0.2
			v2.2c0,0.1,0,0.2,0.2,0.2h1.4c0.1,0,0.2,0.1,0.2,0.2V7c0,0.1-0.1,0.2-0.2,0.2H18c-0.1,0-0.2-0.1-0.2-0.2V0.3
			c0-0.1,0.1-0.2,0.2-0.2h2.2c0.1,0,0.2,0.1,0.2,0.2v0.4c0,0.1-0.1,0.2-0.2,0.2h-1.4c-0.1,0-0.2,0-0.2,0.2V3z"/>
		<path class="st1" d="M22.8,3c0,0.1,0,0.2,0.2,0.2h1.4c0.1,0,0.2,0.1,0.2,0.2v0.4c0,0.1-0.1,0.2-0.2,0.2H23c-0.1,0-0.2,0-0.2,0.2
			v2.2c0,0.1,0,0.2,0.2,0.2h1.4c0.1,0,0.2,0.1,0.2,0.2V7c0,0.1-0.1,0.2-0.2,0.2h-2.2C22,7.2,22,7.2,22,7V0.3c0-0.1,0.1-0.2,0.2-0.2
			h2.2c0.1,0,0.2,0.1,0.2,0.2v0.4c0,0.1-0.1,0.2-0.2,0.2H23c-0.1,0-0.2,0-0.2,0.2V3z"/>
		<path class="st1" d="M32.5,3.7V4c0,0.1-0.1,0.2-0.2,0.2h-0.4c-0.1,0-0.2,0-0.2,0.2v1.3c0.1,0.8-0.4,1.5-1.2,1.6
			c-0.1,0-0.2,0-0.2,0c-0.8,0-1.5-0.5-1.5-1.7V4.7c0-0.5,0.2-0.9,0.5-1.2c-0.4-0.3-0.5-0.8-0.5-1.2V1.7c0-1.3,0.7-1.7,1.5-1.7
			c0.7,0,1.3,0.5,1.4,1.1c0,0.1,0,0.2-0.1,0.2h-0.5c-0.1,0-0.1,0-0.2-0.1c-0.1-0.3-0.3-0.4-0.6-0.4c-0.3,0-0.7,0.2-0.7,0.8v0.6
			c0,0.6,0.4,0.8,0.7,0.8c0.1,0,0.2,0.1,0.2,0.2v0.4c0,0.1-0.1,0.2-0.2,0.2c-0.3,0-0.7,0.2-0.7,0.8v1c0,0.6,0.4,0.8,0.7,0.8
			c0.4,0,0.7-0.3,0.7-0.7c0,0,0-0.1,0-0.1v-2c0-0.1,0.1-0.2,0.2-0.2h1.1C32.5,3.5,32.5,3.6,32.5,3.7L32.5,3.7z"/>
		<path class="st1" d="M36.5,5.3V2c0-1.3,0.6-2,1.7-2c0.9,0,1.6,0.6,1.6,1.5c0,0,0,0.1,0,0.1c0,0.1,0,0.2-0.1,0.2h-0.5
			c-0.1,0-0.2,0-0.2-0.1c0-0.4-0.4-0.8-0.8-0.8c-0.5,0-0.8,0.4-0.8,1.2v3.3c0,0.8,0.3,1.2,0.8,1.2c0.4,0,0.8-0.4,0.8-0.8
			c0-0.1,0.1-0.1,0.2-0.1h0.5c0.1,0,0.1,0.1,0.1,0.2c0,0.9-0.7,1.5-1.5,1.6c0,0-0.1,0-0.1,0C37.1,7.3,36.5,6.6,36.5,5.3z"/>
		<path class="st1" d="M41.3,5.3V2c0-1.3,0.6-2,1.7-2s1.7,0.7,1.7,2v3.3c0,1.3-0.6,2-1.7,2S41.3,6.6,41.3,5.3z M43.8,5.3V2
			c0-0.8-0.3-1.2-0.8-1.2S42.2,1.2,42.2,2v3.3c0,0.8,0.3,1.2,0.8,1.2S43.8,6.1,43.8,5.3z"/>
		<path class="st1" d="M48.9,0.3v0.4c0,0.1-0.1,0.2-0.2,0.2h-1.4c-0.1,0-0.2,0-0.2,0.2V3c0,0.1,0,0.2,0.2,0.2h0.9
			c0.1,0,0.2,0.1,0.2,0.2v0.4c0,0.1-0.1,0.2-0.2,0.2h-0.9c-0.1,0-0.2,0-0.2,0.2V7c0,0.1-0.1,0.2-0.2,0.2h-0.5
			c-0.1,0-0.2-0.1-0.2-0.2V0.3c0-0.1,0.1-0.2,0.2-0.2h2.2C48.8,0.1,48.9,0.1,48.9,0.3L48.9,0.3z"/>
		<path class="st1" d="M52.9,0.3v0.4c0,0.1-0.1,0.2-0.2,0.2h-1.4c-0.1,0-0.2,0-0.2,0.2V3c0,0.1,0,0.2,0.2,0.2h0.9
			c0.1,0,0.2,0.1,0.2,0.2v0.4c0,0.1-0.1,0.2-0.2,0.2h-0.9c-0.1,0-0.2,0-0.2,0.2V7c0,0.1-0.1,0.2-0.2,0.2h-0.5
			c-0.1,0-0.2-0.1-0.2-0.2V0.3c0-0.1,0.1-0.2,0.2-0.2h2.2C52.8,0.1,52.9,0.1,52.9,0.3L52.9,0.3z"/>
		<path class="st1" d="M55.1,3c0,0.1,0,0.2,0.2,0.2h1.4c0.1,0,0.2,0.1,0.2,0.2v0.4c0,0.1-0.1,0.2-0.2,0.2h-1.4c-0.1,0-0.2,0-0.2,0.2
			v2.2c0,0.1,0,0.2,0.2,0.2h1.4c0.1,0,0.2,0.1,0.2,0.2V7c0,0.1-0.1,0.2-0.2,0.2h-2.2c-0.1,0-0.2-0.1-0.2-0.2V0.3
			c0-0.1,0.1-0.2,0.2-0.2h2.2c0.1,0,0.2,0.1,0.2,0.2v0.4c0,0.1-0.1,0.2-0.2,0.2h-1.4c-0.1,0-0.2,0-0.2,0.2L55.1,3z"/>
		<path class="st1" d="M59.3,3c0,0.1,0,0.2,0.2,0.2h1.4c0.1,0,0.2,0.1,0.2,0.2v0.4c0,0.1-0.1,0.2-0.2,0.2h-1.4c-0.1,0-0.2,0-0.2,0.2
			v2.2c0,0.1,0,0.2,0.2,0.2h1.4c0.1,0,0.2,0.1,0.2,0.2V7c0,0.1-0.1,0.2-0.2,0.2h-2.2c-0.1,0-0.2-0.1-0.2-0.2V0.3
			c0-0.1,0.1-0.2,0.2-0.2h2.2c0.1,0,0.2,0.1,0.2,0.2v0.4c0,0.1-0.1,0.2-0.2,0.2h-1.4c-0.1,0-0.2,0-0.2,0.2L59.3,3z"/>
		<path class="st1" d="M65.3,7V0.3c0-0.1,0.1-0.2,0.2-0.2h1.4c0.9,0,1.6,0.6,1.7,1.5c0,0.1,0,0.2,0,0.3v0.2c0,0.6-0.2,1.1-0.7,1.4
			c0.6,0.3,0.9,1,0.8,1.6v0.3c0.1,0.9-0.5,1.7-1.4,1.8c-0.1,0-0.2,0-0.3,0h-1.4C65.4,7.2,65.3,7.2,65.3,7L65.3,7z M66.8,3.1
			c0.5,0,0.9-0.3,0.9-1V1.9c0-0.7-0.4-1-0.9-1h-0.4c-0.1,0-0.2,0-0.2,0.2v1.9c0,0.1,0,0.2,0.2,0.2H66.8z M66.9,6.5
			c0.6,0,1-0.3,1-1.1V5c0-0.8-0.4-1.1-1-1.1h-0.5c-0.1,0-0.2,0-0.2,0.2v2.2c0,0.1,0,0.2,0.2,0.2L66.9,6.5z"/>
		<path class="st1" d="M71.3,0.3c0-0.2,0.1-0.2,0.3-0.2h0.4c0.2,0,0.2,0,0.3,0.2L73.6,7c0,0.1,0,0.2-0.1,0.2H73
			c-0.1,0-0.2,0-0.2-0.2l-0.3-1.3c0-0.1-0.1-0.1-0.2-0.1h-1.2c-0.1,0-0.2,0-0.2,0.1L70.7,7c0,0.1-0.1,0.2-0.2,0.2H70
			c-0.1,0-0.2,0-0.1-0.2L71.3,0.3z M71.2,4.9h1.1c0,0,0.1,0,0.1-0.1l-0.6-2.8c0-0.1-0.1-0.1-0.1,0l-0.6,2.8
			C71.1,4.8,71.1,4.9,71.2,4.9L71.2,4.9z"/>
		<path class="st1" d="M78.3,7.2h-0.6c-0.1,0-0.2,0-0.2-0.1l-1-2.7H76c-0.1,0-0.2,0-0.2,0.2V7c0,0.1-0.1,0.2-0.2,0.2h-0.5
			c-0.1,0-0.2-0.1-0.2-0.2V0.3c0-0.1,0.1-0.2,0.2-0.2h1.4c0.9,0,1.6,0.7,1.7,1.6c0,0.1,0,0.2,0,0.2v0.6c0.1,0.7-0.3,1.3-0.8,1.7
			L78.4,7C78.5,7.1,78.4,7.2,78.3,7.2L78.3,7.2z M76,3.6h0.5c0.4,0,0.8-0.3,0.8-1.1V1.9c0-0.8-0.4-1.1-0.8-1.1H76
			c-0.1,0-0.2,0-0.2,0.2v2.4C75.8,3.6,75.9,3.6,76,3.6L76,3.6z"/>
	</g>
</g>
</svg>
